<svg width="171" height="38" viewBox="0 0 171 38" fill="none" xmlns="http://www.w3.org/2000/svg">
<path d="M4.768 30H2.432V7.12H5.28L17.664 26.704H17.728V7.12H20.064V30H17.216L4.832 10.416H4.768V30Z" fill="black"/>
<path d="M41.5625 7.59375C41.7708 7.73958 42.276 8.80729 43.0781 10.7969C46.8177 19.1302 49.651 25.5104 51.5781 29.9375L51.4531 30H49.0625C48.6354 29.3021 46.6823 24.8542 43.2031 16.6562C41.0156 11.6458 39.9219 9.10417 39.9219 9.03125C39.7656 9.19792 38.2552 12.6406 35.3906 19.3594C33.3802 24.0156 31.8281 27.5625 30.7344 30H28.2812L28.1562 29.9375C34.6875 15.1979 38.0052 7.75 38.1094 7.59375H41.5625Z" fill="black"/>
<path d="M79.512 30H76.792L68.152 18.192L63.768 22.768V30H61.432V7.12H63.768V20.048L76.12 7.12H78.776L69.656 16.624L79.512 30Z" fill="black"/>
<path d="M98.5625 7.59375C98.7708 7.73958 99.276 8.80729 100.078 10.7969C103.818 19.1302 106.651 25.5104 108.578 29.9375L108.453 30H106.062C105.635 29.3021 103.682 24.8542 100.203 16.6562C98.0156 11.6458 96.9219 9.10417 96.9219 9.03125C96.7656 9.19792 95.2552 12.6406 92.3906 19.3594C90.3802 24.0156 88.8281 27.5625 87.7344 30H85.2812L85.1562 29.9375C91.6875 15.1979 95.0052 7.75 95.1094 7.59375H98.5625Z" fill="black"/>
<path d="M116.281 7.59375H118.359C118.443 7.60417 118.484 7.64583 118.484 7.71875V29.875C118.484 29.9583 118.443 30 118.359 30H116.281C116.198 30 116.156 29.9583 116.156 29.875V7.71875C116.167 7.63542 116.208 7.59375 116.281 7.59375ZM137.766 7.59375C137.849 7.60417 137.891 7.64583 137.891 7.71875V29.875C137.891 29.9583 137.849 30 137.766 30H135.625C135.542 30 135.5 29.9583 135.5 29.875V12C135.271 12.2708 132.885 16.6771 128.344 25.2188H128.219V20.75C128.219 20.3542 129.115 18.5781 130.906 15.4219C133.604 10.3281 135.016 7.71875 135.141 7.59375H137.766Z" fill="black"/>
<path d="M158.562 7.59375C158.771 7.73958 159.276 8.80729 160.078 10.7969C163.818 19.1302 166.651 25.5104 168.578 29.9375L168.453 30H166.062C165.635 29.3021 163.682 24.8542 160.203 16.6562C158.016 11.6458 156.922 9.10417 156.922 9.03125C156.766 9.19792 155.255 12.6406 152.391 19.3594C150.38 24.0156 148.828 27.5625 147.734 30H145.281L145.156 29.9375C151.688 15.1979 155.005 7.75 155.109 7.59375H158.562Z" fill="black"/>
</svg>
