<svg width="171" height="134" viewBox="0 0 171 134" fill="none" xmlns="http://www.w3.org/2000/svg">
<path d="M4.768 78H2.432V55.12H5.28L17.664 74.704H17.728V55.12H20.064V78H17.216L4.832 58.416H4.768V78Z" fill="white"/>
<path d="M41.5625 55.5938C41.7708 55.7396 42.276 56.8073 43.0781 58.7969C46.8177 67.1302 49.651 73.5104 51.5781 77.9375L51.4531 78H49.0625C48.6354 77.3021 46.6823 72.8542 43.2031 64.6562C41.0156 59.6458 39.9219 57.1042 39.9219 57.0312C39.7656 57.1979 38.2552 60.6406 35.3906 67.3594C33.3802 72.0156 31.8281 75.5625 30.7344 78H28.2812L28.1562 77.9375C34.6875 63.1979 38.0052 55.75 38.1094 55.5938H41.5625Z" fill="white"/>
<path d="M79.512 78H76.792L68.152 66.192L63.768 70.768V78H61.432V55.12H63.768V68.048L76.12 55.12H78.776L69.656 64.624L79.512 78Z" fill="white"/>
<path d="M98.5625 55.5938C98.7708 55.7396 99.276 56.8073 100.078 58.7969C103.818 67.1302 106.651 73.5104 108.578 77.9375L108.453 78H106.062C105.635 77.3021 103.682 72.8542 100.203 64.6562C98.0156 59.6458 96.9219 57.1042 96.9219 57.0312C96.7656 57.1979 95.2552 60.6406 92.3906 67.3594C90.3802 72.0156 88.8281 75.5625 87.7344 78H85.2812L85.1562 77.9375C91.6875 63.1979 95.0052 55.75 95.1094 55.5938H98.5625Z" fill="white"/>
<path d="M116.281 55.5938H118.359C118.443 55.6042 118.484 55.6458 118.484 55.7188V77.875C118.484 77.9583 118.443 78 118.359 78H116.281C116.198 78 116.156 77.9583 116.156 77.875V55.7188C116.167 55.6354 116.208 55.5938 116.281 55.5938ZM137.766 55.5938C137.849 55.6042 137.891 55.6458 137.891 55.7188V77.875C137.891 77.9583 137.849 78 137.766 78H135.625C135.542 78 135.5 77.9583 135.5 77.875V60C135.271 60.2708 132.885 64.6771 128.344 73.2188H128.219V68.75C128.219 68.3542 129.115 66.5781 130.906 63.4219C133.604 58.3281 135.016 55.7188 135.141 55.5938H137.766Z" fill="white"/>
<path d="M158.562 55.5938C158.771 55.7396 159.276 56.8073 160.078 58.7969C163.818 67.1302 166.651 73.5104 168.578 77.9375L168.453 78H166.062C165.635 77.3021 163.682 72.8542 160.203 64.6562C158.016 59.6458 156.922 57.1042 156.922 57.0312C156.766 57.1979 155.255 60.6406 152.391 67.3594C150.38 72.0156 148.828 75.5625 147.734 78H145.281L145.156 77.9375C151.688 63.1979 155.005 55.75 155.109 55.5938H158.562Z" fill="white"/>
<path d="M32 96V132H140V96" stroke="white" stroke-width="3"/>
<path d="M32 38V2H140V38" stroke="white" stroke-width="3"/>
</svg>
