<svg width="45" height="35" viewBox="0 0 45 35" fill="none" xmlns="http://www.w3.org/2000/svg">
<g clip-path="url(#clip0_503_56)">
<path d="M19.2782 8.26548C20.0974 8.52176 20.8849 8.88069 21.5929 9.33715C21.6085 9.34729 21.6265 9.35332 21.645 9.35466C21.6636 9.356 21.6822 9.3526 21.6989 9.3448C26.9761 6.89119 32.2513 4.43885 37.5245 1.98779C37.9416 1.79398 38.4549 2.01393 38.5519 2.46466C38.6431 2.88606 38.4685 3.17805 38.098 3.35018C32.9916 5.72219 27.9547 8.06317 22.9875 10.3731C22.9844 10.3745 22.9818 10.3766 22.9798 10.3793C22.9777 10.3819 22.9764 10.3851 22.9759 10.3884C22.9754 10.3917 22.9757 10.3952 22.9768 10.3984C22.9779 10.4016 22.9798 10.4045 22.9823 10.4069C24.2142 11.554 25.0879 12.9239 25.6034 14.5164C25.6048 14.5206 25.6071 14.5244 25.6101 14.5277C25.6131 14.5309 25.6169 14.5335 25.621 14.5353C25.6252 14.537 25.6297 14.5379 25.6342 14.5378C25.6388 14.5377 25.6432 14.5367 25.6474 14.5349C27.2582 13.7745 28.978 13.4721 30.8069 13.6277C33.5761 13.8636 36.2179 15.3503 37.8336 17.6014C39.3301 19.6869 39.9084 22.0304 39.5683 24.632C39.5648 24.6579 39.5765 24.6711 39.6032 24.6715C41.1575 24.6753 42.672 24.6743 44.1465 24.6683C44.4873 24.667 44.7789 24.7741 44.9327 25.0821C45.0304 25.2765 44.9955 25.4926 45.0006 25.7075C45.0028 25.7912 44.9993 25.8753 44.9903 25.9599C44.8386 27.3642 44.2827 28.5589 43.3228 29.5441C42.3478 30.5454 41.1327 31.1447 39.6776 31.3419C39.6539 31.3453 39.6399 31.3585 39.6355 31.3814C39.3084 33.1556 37.9778 34.541 36.2017 34.9107C35.8957 34.9745 35.4827 35.0059 34.9629 35.0051C26.703 34.9962 18.4088 34.9964 10.0804 35.0057C9.54071 35.0062 9.11895 34.9762 8.81507 34.9158C7.19222 34.5913 5.92627 33.3909 5.46334 31.8188C5.4211 31.676 5.38963 31.5314 5.36894 31.3852C5.3655 31.3606 5.35106 31.3466 5.32563 31.3432C3.93683 31.1566 2.76636 30.6028 1.8142 29.6818C0.65817 28.5629 0.0129114 27.0922 -0.00777824 25.4862C-0.0155369 24.9271 0.336187 24.6677 0.870885 24.6689C2.6433 24.6732 4.40149 24.674 6.14545 24.6715C6.17088 24.6715 6.18489 24.659 6.18748 24.6339C6.2961 23.5905 6.60235 22.6278 7.10623 21.7459C7.17864 21.6188 7.24588 21.4988 7.30795 21.3857C7.31701 21.3691 7.31787 21.3523 7.31054 21.3353C5.96054 18.2249 6.29416 14.7778 8.21119 11.9905C8.45472 11.6365 8.72304 11.3028 9.01614 10.9896C10.5049 9.39921 12.3006 8.39829 14.4032 7.98688C15.1653 7.8377 16.0026 7.78691 16.9151 7.83451C16.9914 7.83834 17.0625 7.82049 17.1284 7.78096C21.2271 5.30822 25.4569 2.75707 29.8177 0.127499C30.3737 -0.2072 31.0306 0.153637 30.9795 0.813473C30.9562 1.11566 30.7868 1.2744 30.5437 1.4204C26.6804 3.7465 22.9233 6.01205 19.2724 8.21703C19.2388 8.23743 19.2407 8.25358 19.2782 8.26548ZM19.4528 9.89562C14.2261 7.80391 8.60946 11.2255 8.01205 16.6725C7.97196 17.0391 7.97584 17.4522 7.98942 17.82C8.01787 18.5757 8.15149 19.2997 8.39028 19.9921C8.39173 19.9961 8.39421 19.9998 8.39747 20.0026C8.40073 20.0055 8.40468 20.0075 8.40894 20.0085C8.4132 20.0094 8.41764 20.0093 8.42184 20.0081C8.42604 20.0069 8.42986 20.0047 8.43295 20.0016C8.95925 19.4857 9.54998 19.0558 10.2052 18.7119C10.2195 18.7044 10.231 18.6924 10.2379 18.6779C10.2448 18.6635 10.2467 18.6472 10.2433 18.6316C9.70601 16.0401 10.9603 13.476 13.2439 12.1786C14.3793 11.5334 15.6556 11.2882 17.0728 11.4429C17.1284 11.4486 17.2254 11.4276 17.2765 11.4034C18.1786 10.9809 19.0689 10.5659 19.9474 10.1583C19.9507 10.1567 19.9535 10.1542 19.9554 10.1511C19.9574 10.1481 19.9584 10.1446 19.9585 10.1409C19.9586 10.1373 19.9576 10.1338 19.9558 10.1306C19.9539 10.1275 19.9513 10.1249 19.948 10.1232C19.7873 10.0395 19.6222 9.96363 19.4528 9.89562ZM21.3136 11.1458C20.767 11.4114 20.1299 11.7077 19.4024 12.0345C19.3584 12.0545 19.3123 12.0723 19.264 12.0881C19.2144 12.1042 19.2123 12.1253 19.2575 12.1512C20.4278 12.818 21.2944 13.7314 21.8573 14.8913C21.8662 14.9099 21.8796 14.926 21.8963 14.9383C21.913 14.9505 21.9325 14.9584 21.953 14.9614C22.7931 15.0812 23.5832 15.3252 24.3233 15.6933C24.3452 15.7043 24.3554 15.6977 24.3536 15.6735C24.3493 15.6089 24.3392 15.5458 24.3233 15.4841C23.8681 13.7157 22.9327 12.2536 21.5172 11.098C21.5017 11.0852 21.4842 11.0814 21.4648 11.0865C21.4174 11.0997 21.367 11.1195 21.3136 11.1458ZM20.1297 14.8721C19.4799 13.9579 18.545 13.2923 17.4562 13.0086C17.3998 12.9942 17.3402 12.9996 17.2875 13.0239L12.1558 15.4096C12.1173 15.4273 12.0863 15.4575 12.0679 15.495C11.6743 16.2868 11.5338 17.1477 11.6463 18.0776C11.6493 18.1022 11.6629 18.1112 11.687 18.1044C12.6909 17.8213 13.6873 17.7361 14.6761 17.8487C14.708 17.8521 14.7338 17.8415 14.7536 17.8168C16.1024 16.1523 17.9683 15.1195 20.109 14.9168C20.1422 14.9134 20.1491 14.8985 20.1297 14.8721ZM37.2627 19.5101C36.0174 17.1309 33.6873 15.4752 30.9821 15.1227C29.27 14.8995 27.6189 15.1885 26.0289 15.9897C26.0075 16.0005 25.9899 16.0173 25.9784 16.0381C25.9669 16.0589 25.9619 16.0827 25.9642 16.1064L26.0373 16.8389C26.039 16.8567 26.0465 16.8718 26.0599 16.8841C26.3711 17.1774 26.675 17.4981 26.9715 17.8462C26.9866 17.8636 27.0045 17.867 27.0252 17.8564C27.992 17.3549 29.0442 17.1292 30.1817 17.1793C31.5929 17.2418 32.8314 17.7267 33.8974 18.6341C35.6638 20.1381 36.3795 22.3739 35.872 24.6345C35.8664 24.66 35.8767 24.6728 35.903 24.6728L37.9842 24.6721C38.0308 24.6721 38.0577 24.6494 38.0651 24.6039C38.3569 22.7874 38.0894 21.0895 37.2627 19.5101ZM23.3276 16.8535C21.7312 16.1497 19.809 16.1835 18.2353 16.9122C15.2819 18.2797 13.8717 21.5859 15.0039 24.6205C15.0095 24.6356 15.0198 24.6487 15.0334 24.6579C15.0469 24.6672 15.063 24.6721 15.0795 24.6721H17.0243C17.0592 24.6721 17.0681 24.6573 17.0508 24.6275C16.6138 23.8799 16.4267 23.0541 16.4896 22.1501C16.6306 20.1419 18.2334 18.4652 20.261 18.2153C20.9463 18.1311 21.5914 18.1883 22.1961 18.3868C23.4789 18.8076 24.5476 19.7932 24.9776 21.0663C25.3931 22.2967 25.2799 23.4846 24.6381 24.6301C24.6357 24.6343 24.6344 24.6391 24.6344 24.644C24.6345 24.6489 24.6358 24.6537 24.6384 24.6579C24.6409 24.6622 24.6446 24.6657 24.6489 24.6682C24.6533 24.6707 24.6583 24.6721 24.6633 24.6721H26.6062C26.6515 24.6721 26.6814 24.6511 26.6961 24.609C27.128 23.3692 27.1974 22.1781 26.9043 21.0357C26.4187 19.1416 25.1224 17.6454 23.3276 16.8535ZM31.4153 21.176C32.5183 21.9843 32.7937 23.4831 32.0411 24.625C32.0381 24.6296 32.0364 24.6349 32.0362 24.6404C32.036 24.6458 32.0373 24.6513 32.0399 24.6561C32.0426 24.6609 32.0465 24.6649 32.0512 24.6678C32.056 24.6706 32.0614 24.6721 32.067 24.6721H34.2511C34.2684 24.6721 34.2852 24.6667 34.2991 24.6566C34.3131 24.6465 34.3234 24.6323 34.3286 24.616C34.5161 24.0263 34.6002 23.3913 34.531 22.7838C34.4129 21.7582 34.0073 20.8714 33.3142 20.1234C31.9241 18.6233 29.6896 18.1911 27.8043 19.1174C27.7832 19.1276 27.7778 19.1431 27.7881 19.1639C28.092 19.7819 28.3049 20.4211 28.4269 21.0816C28.4308 21.1037 28.4424 21.109 28.4618 21.0975C29.3929 20.5391 30.5411 20.5352 31.4153 21.176ZM13.3267 20.7514C13.4534 20.242 13.6235 19.739 13.853 19.2761C13.8546 19.2729 13.8553 19.2694 13.855 19.2658C13.8547 19.2623 13.8534 19.2589 13.8513 19.2559C13.8492 19.2529 13.8464 19.2505 13.8431 19.2489C13.8397 19.2473 13.836 19.2466 13.8323 19.2468C13.6409 19.2621 13.4472 19.2789 13.2511 19.2972C11.8726 19.4234 10.584 20.022 9.58382 20.956C8.54502 21.9259 7.91183 23.1416 7.68425 24.6033C7.68294 24.6118 7.68352 24.6205 7.68595 24.6288C7.68837 24.6371 7.69258 24.6448 7.69829 24.6513C7.704 24.6578 7.71107 24.6631 7.71903 24.6667C7.72698 24.6703 7.73563 24.6721 7.74438 24.6721H9.19653C9.22067 24.6721 9.23489 24.6604 9.2392 24.6371C9.49826 23.3072 10.1888 22.2729 11.3108 21.5342C11.8797 21.1594 12.5217 20.925 13.2368 20.8311C13.2582 20.8282 13.2782 20.8191 13.2942 20.8049C13.3103 20.7907 13.3216 20.772 13.3267 20.7514ZM20.0308 19.7651C18.0245 20.3778 17.2952 22.7347 18.6614 24.3444C18.7603 24.4611 18.9342 24.6683 19.0965 24.6696C20.3254 24.6785 21.4778 24.6787 22.5536 24.6702C22.6601 24.6694 22.7508 24.633 22.8258 24.5612C23.8092 23.6196 24.0161 22.1667 23.3192 21.0338C22.6448 19.9379 21.3045 19.3756 20.0308 19.7651ZM30.973 23.2294C30.973 22.9448 30.8584 22.6719 30.6543 22.4707C30.4503 22.2695 30.1735 22.1565 29.8849 22.1565C29.742 22.1565 29.6005 22.1842 29.4685 22.2381C29.3365 22.2921 29.2165 22.3711 29.1155 22.4707C29.0144 22.5704 28.9343 22.6886 28.8796 22.8188C28.8249 22.949 28.7967 23.0885 28.7967 23.2294C28.7967 23.3703 28.8249 23.5098 28.8796 23.64C28.9343 23.7702 29.0144 23.8885 29.1155 23.9881C29.2165 24.0877 29.3365 24.1668 29.4685 24.2207C29.6005 24.2746 29.742 24.3024 29.8849 24.3024C30.1735 24.3024 30.4503 24.1893 30.6543 23.9881C30.8584 23.7869 30.973 23.514 30.973 23.2294ZM10.9364 24.1443C10.8592 24.3049 10.8008 24.4719 10.7612 24.6454C10.7605 24.6486 10.7606 24.6519 10.7613 24.6551C10.7621 24.6584 10.7635 24.6613 10.7656 24.6639C10.7676 24.6665 10.7702 24.6685 10.7731 24.67C10.7761 24.6714 10.7793 24.6721 10.7825 24.6721H13.4146C13.4383 24.6721 13.447 24.6609 13.4405 24.6383C13.2211 23.9001 13.1153 23.1455 13.123 22.3745C13.1231 22.3704 13.1222 22.3663 13.1203 22.3625C13.1185 22.3588 13.1158 22.3556 13.1125 22.353C13.1092 22.3505 13.1053 22.3487 13.1012 22.3479C13.0971 22.3471 13.0928 22.3473 13.0888 22.3484C12.1 22.6174 11.3825 23.216 10.9364 24.1443ZM42.4041 28.3519C42.9472 27.7494 43.3105 26.9851 43.4541 26.1875C43.4597 26.1548 43.4457 26.1384 43.412 26.1384H1.5989C1.55407 26.1384 1.53619 26.1601 1.54524 26.2035C1.94351 28.153 3.43446 29.5791 5.44007 29.8769C5.53015 29.89 5.61981 29.8975 5.70903 29.8992C5.92886 29.9036 6.15063 29.9304 6.36916 29.9304C16.9321 29.9321 27.6429 29.9325 38.5015 29.9317C38.8523 29.9317 39.1888 29.9128 39.5108 29.8749C40.6452 29.7406 41.6097 29.233 42.4041 28.3519ZM38.1161 31.3929C38.1217 31.375 38.1151 31.3661 38.0961 31.3661H6.90192C6.89883 31.3662 6.89579 31.367 6.89305 31.3684C6.89031 31.3698 6.88794 31.3718 6.88612 31.3743C6.8843 31.3767 6.88309 31.3796 6.88258 31.3826C6.88207 31.3856 6.88227 31.3887 6.88317 31.3916C7.23144 32.4559 7.92261 33.1367 8.95666 33.4342C9.18899 33.501 9.4267 33.5343 9.66981 33.5343C18.1392 33.5322 26.6342 33.5328 35.1549 33.5362C35.4817 33.5362 35.7467 33.5101 35.9502 33.4578C37.036 33.1786 37.758 32.4903 38.1161 31.3929Z" fill="#232B2B"/>
</g>
<defs>
<clipPath id="clip0_503_56">
<rect width="45" height="35" fill="white"/>
</clipPath>
</defs>
</svg>
